<?xml version="1.0" ?><svg data-name="Layer 1" id="Layer_1" viewBox="0 0 512 512" xmlns="http://www.w3.org/2000/svg"><path d="M279.37,241.26l-51.89-64a37.58,37.58,0,1,0-63.23,0L91.07,267.5a30.9,30.9,0,0,0-9-1.46,31.32,31.32,0,1,0,31.31,31.31,30.91,30.91,0,0,0-4-14.92l73.2-90.23a36,36,0,0,0,26.38,0l51.92,64A63.85,63.85,0,0,1,279.37,241.26Z"/><path d="M309.61,257A40.34,40.34,0,1,0,350,297.36,40.39,40.39,0,0,0,309.61,257Z"/><path d="M423.36,86.56a70.64,70.64,0,0,0-70.56,70.57,69.93,69.93,0,0,0,17.75,46.3l-30.69,37.83a64,64,0,0,1,18.4,14.94L389,218.35a69.69,69.69,0,0,0,34.4,9.34,70.57,70.57,0,1,0,0-141.13Zm0,117.43a46.86,46.86,0,1,1,46.87-46.86A46.91,46.91,0,0,1,423.36,204Z"/><path d="M462.56,401.73H29.92a11.86,11.86,0,0,0,0,23.71H462.56a11.86,11.86,0,0,0,0-23.71Z"/><path d="M462.59,285.51H400.73a11.85,11.85,0,0,0,0,23.7h61.86a11.85,11.85,0,1,0,0-23.7Z"/><path d="M423.36,348.35a11.86,11.86,0,0,0,0-23.71H400.73a11.86,11.86,0,0,0,0,23.71Z"/><path d="M265,139.47h61.85a11.85,11.85,0,1,0,0-23.7H265a11.85,11.85,0,1,0,0,23.7Z"/><path d="M265,178.61h22.64a11.85,11.85,0,0,0,0-23.7H265a11.85,11.85,0,1,0,0,23.7Z"/></svg>